{"title":"O Sangue (1989)","uid":11441216,"size":1791256810,"categoryP":"video","categoryS":"movies","magnet":"?xt=urn:btih:1e2a3c5de12ab2b05dcd19f0a7b3d2e0e0fe75e0&amp;dn=O+Sangue+%281989%29&amp;tr=udp%3A%2F%2Ftracker.openbittorrent.com%3A80&amp;tr=udp%3A%2F%2Fopen.demonii.com%3A1337&amp;tr=udp%3A%2F%2Ftracker.coppersurfer.tk%3A6969&amp;tr=udp%3A%2F%2Fexodus.desync.com%3A6969","seeders":1,"leechers":1,"uploader":"cavallone","files":1,"time":1415810491,"description":"Plot: Vicente, seventeen, lives with brother Nino, ten-years-old, and his ailing father in a derelict house on the outskirts of the capital. They don't seem to remember their mother, and are very much attached to their father, despite his temper, and his frequent absences from home. One day, the father leaves for good, and Vicente and Nino swear to cover it up. It's their secret. Clara, the primary school assistant, is fascinatingly beautiful, and secretive, and (may be) she knows it aswel. There are other secrets, though: the origin of the money that appears at Vicente's house; the relationship between Vicente's well-to-do uncle and his girlfriend; the relationship between the four people who once played the cards together, and now can't stand each other.\n\n\nRip specs:\n\nGeneral\nUnique ID                                : 190789778066058271626447797623184646752 (0x8F88C650838248EF8438C8799D176260)\nComplete name                            : O.Sangue.AKA.Blood.1989.DVDRip.x264-HANDJOB.mkv\nFormat                                   : Matroska\nFormat version                           : Version 4 / Version 2\nFile size                                : 1.67 GiB\nDuration                                 : 1h 34mn\nOverall bit rate                         : 2 517 Kbps\nEncoded date                             : UTC 2014-07-04 23:47:37\nWriting application                      : mkvmerge v6.1.0 ('Old Devil') built on Mar  2 2013 14:32:37\nWriting library                          : libebml v1.3.0 + libmatroska v1.4.0\n\nVideo\nID                                       : 1\nFormat                                   : AVC\nFormat/Info                              : Advanced Video Codec\nFormat profile                           : &lt;a class=&quot;__cf_email__&quot; href=&quot;/cdn-cgi/l/email-protection&quot; data-cfemail=&quot;6028090708202c544e50&quot;&gt;[email&amp;#160;protected]&lt;/a&gt;&lt;script cf-hash='f9e31' type=&quot;text/javascript&quot;&gt;\n/* &lt;![CDATA[ */!function(){try{var t=&quot;currentScript&quot;in document?document.currentScript:function(){for(var t=document.getElementsByTagName(&quot;script&quot;),e=t.length;e--;)if(t[e].getAttribute(&quot;cf-hash&quot;))return t[e]}();if(t&amp;&amp;t.previousSibling){var e,r,n,i,c=t.previousSibling,a=c.getAttribute(&quot;data-cfemail&quot;);if(a){for(e=&quot;&quot;,r=parseInt(a.substr(0,2),16),n=2;a.length-n;n+=2)i=parseInt(a.substr(n,2),16)^r,e+=String.fromCharCode(i);e=document.createTextNode(e),c.parentNode.replaceChild(e,c)}}}catch(u){}}();/* ]]&gt; */&lt;/script&gt;\nFormat settings, CABAC                   : Yes\nFormat settings, ReFrames                : 16 frames\nCodec ID                                 : V_MPEG4/ISO/AVC\nDuration                                 : 1h 34mn\nBit rate                                 : 2 274 Kbps\nWidth                                    : 684 pixels\nHeight                                   : 552 pixels\nDisplay aspect ratio                     : 4:3\nOriginal display aspect ratio            : 4:3\nFrame rate mode                          : Constant\nFrame rate                               : 25.000 fps\nColor space                              : YUV\nChroma subsampling                       : 4:2:0\nBit depth                                : 8 bits\nScan type                                : Progressive\nBits/(Pixel*Frame)                       : 0.241\nStream size                              : 1.51 GiB (90%)\nWriting library                          : x264 core 130 r2273 b3065e6\nEncoding settings                        : cabac=1 / ref=16 / deblock=1:-3:-3 / analyse=0x3:0x133 / me=umh / subme=11 / psy=1 / psy_rd=1.00:0.00 / mixed_ref=1 / me_range=32 / chroma_me=1 / trellis=2 / 8x8dct=1 / cqm=0 / deadzone=21,11 / fast_pskip=1 / chroma_qp_offset=-2 / threads=3 / lookahead_threads=1 / sliced_threads=0 / nr=0 / decimate=1 / interlaced=0 / bluray_compat=0 / constrained_intra=0 / bframes=14 / b_pyramid=2 / b_adapt=2 / b_bias=0 / direct=3 / weightb=1 / open_gop=0 / weightp=2 / keyint=250 / keyint_min=25 / scenecut=40 / intra_refresh=0 / rc_lookahead=60 / rc=crf / mbtree=1 / crf=17.0 / qcomp=0.70 / qpmin=0 / qpmax=69 / qpstep=4 / ip_ratio=1.40 / aq=1:1.10\nLanguage                                 : Portuguese\nDefault                                  : Yes\nForced                                   : No\nColor primaries                          : BT.601 PAL\nTransfer characteristics                 : BT.709\nMatrix coefficients                      : BT.601\n\nAudio\nID                                       : 2\nFormat                                   : AC-3\nFormat/Info                              : Audio Coding 3\nMode extension                           : CM (complete main)\nFormat settings, Endianness              : Big\nCodec ID                                 : A_AC3\nDuration                                 : 1h 34mn\nBit rate mode                            : Constant\nBit rate                                 : 192 Kbps\nChannel(s)                               : 2 channels\nChannel positions                        : Front: L R\nSampling rate                            : 48.0 KHz\nBit depth                                : 16 bits\nCompression mode                         : Lossy\nStream size                              : 130 MiB (8%)\nLanguage                                 : Portuguese\nDefault                                  : Yes\nForced                                   : No\n\nText #1\nID                                       : 3\nFormat                                   : UTF-8\nCodec ID                                 : S_TEXT/UTF8\nCodec ID/Info                            : UTF-8 Plain Text\nLanguage                                 : English\nDefault                                  : Yes\nForced                                   : No\n\nText #2\nID                                       : 4\nFormat                                   : UTF-8\nCodec ID                                 : S_TEXT/UTF8\nCodec ID/Info                            : UTF-8 Plain Text\nLanguage                                 : French\nDefault                                  : No\nForced                                   : No\n\nText #3\nID                                       : 5\nFormat                                   : UTF-8\nCodec ID                                 : S_TEXT/UTF8\nCodec ID/Info                            : UTF-8 Plain Text\nLanguage                                 : Portuguese\nDefault                                  : No\nForced                                   : No\n\nMenu\n00:00:00.000                             : en:Chapter 1\n00:00:08.440                             : en:Chapter 2\n00:10:30.520                             : en:Chapter 3\n00:21:06.080                             : en:Chapter 4\n00:31:42.640                             : en:Chapter 5\n00:39:43.280                             : en:Chapter 6\n00:51:03.560                             : en:Chapter 7\n01:01:28.880                             : en:Chapter 8\n01:10:57.840                             : en:Chapter 9\n01:22:34.400                             : en:Chapter 10\n\n\nMy rip","torrent":{"xt":"urn:btih:1e2a3c5de12ab2b05dcd19f0a7b3d2e0e0fe75e0","amp;dn":"O+Sangue+%281989%29","amp;tr":["udp%3A%2F%2Ftracker.openbittorrent.com%3A80","udp%3A%2F%2Fopen.demonii.com%3A1337","udp%3A%2F%2Ftracker.coppersurfer.tk%3A6969","udp%3A%2F%2Fexodus.desync.com%3A6969"],"infoHash":"1e2a3c5de12ab2b05dcd19f0a7b3d2e0e0fe75e0","infoHashBuffer":{"type":"Buffer","data":[30,42,60,93,225,42,178,176,93,205,25,240,167,179,210,224,224,254,117,224]},"announce":[],"urlList":[]}}